<?xml version="1.0" encoding="UTF-8" standalone="no"?>
<svg
   xmlns:dc="http://purl.org/dc/elements/1.1/"
   xmlns:cc="http://creativecommons.org/ns#"
   xmlns:rdf="http://www.w3.org/1999/02/22-rdf-syntax-ns#"
   xmlns:svg="http://www.w3.org/2000/svg"
   xmlns="http://www.w3.org/2000/svg"
   xmlns:sodipodi="http://sodipodi.sourceforge.net/DTD/sodipodi-0.dtd"
   xmlns:inkscape="http://www.inkscape.org/namespaces/inkscape"
   height="128"
   version="1.1"
   width="128"
   style="overflow: hidden; position: relative;"
   id="svg60"
   sodipodi:docname="river_crossing_icon_disabled_2.svg"
   inkscape:version="0.92.3 (2405546, 2018-03-11)">
  <metadata
     id="metadata64">
    <rdf:RDF>
      <cc:Work
         rdf:about="">
        <dc:format>image/svg+xml</dc:format>
        <dc:type
           rdf:resource="http://purl.org/dc/dcmitype/StillImage" />
        <dc:title></dc:title>
      </cc:Work>
    </rdf:RDF>
  </metadata>
  <sodipodi:namedview
     pagecolor="#ffffff"
     bordercolor="#666666"
     borderopacity="1"
     objecttolerance="10"
     gridtolerance="10"
     guidetolerance="10"
     inkscape:pageopacity="0"
     inkscape:pageshadow="2"
     inkscape:window-width="1600"
     inkscape:window-height="837"
     id="namedview62"
     showgrid="false"
     inkscape:zoom="5.039"
     inkscape:cx="64"
     inkscape:cy="64"
     inkscape:window-x="-9"
     inkscape:window-y="-9"
     inkscape:window-maximized="1"
     inkscape:current-layer="svg60" />
  <desc
     style="-webkit-tap-highlight-color: rgba(0, 0, 0, 0);"
     id="desc42">Created with Raphaël 2.2.0</desc>
  <defs
     style="-webkit-tap-highlight-color: rgba(0, 0, 0, 0);"
     id="defs44" />
  <rect
     x="6"
     y="6"
     width="116"
     height="116"
     rx="10"
     ry="10"
     fill="#737370"
     stroke="#000"
     stroke-width="0"
     style="-webkit-tap-highlight-color: rgba(0, 0, 0, 0);"
     id="rect46" />
  <path
     fill="#ffffff"
     stroke="#ffffff"
     d="M25,41L41,35L41,25L43,25L51,35L57,45L47,55L43,45L31,45Z"
     style="-webkit-tap-highlight-color: rgba(0, 0, 0, 0); stroke-linejoin: round;"
     stroke-width="5px"
     stroke-linejoin="round"
     id="path48" />
  <path
     fill="#ffffff"
     stroke="#ffffff"
     d="M44.8,78.4C44.8,69.65,58.8,66.15,58.8,69.65C58.8,67.9,48.3,69.65,48.3,78.4L48.3,81.2L55.3,84.7L48.3,84.7L46.55,101.85H36.05L34.3,84.69999999999999L27.299999999999997,84.69999999999999L34.3,81.19999999999999L34.3,78.39999999999999C34.3,69.64999999999999,23.799999999999997,67.89999999999999,23.799999999999997,69.64999999999999C23.799999999999997,66.14999999999999,37.8,69.64999999999999,37.8,78.39999999999999Z"
     stroke-width="1.4px"
     stroke-linejoin="round"
     style="-webkit-tap-highlight-color: rgba(0, 0, 0, 0); stroke-linejoin: round;"
     id="path50" />
  <circle
     cx="88"
     cy="40"
     r="15"
     fill="#ffffff"
     stroke="#ffffff"
     stroke-width="0"
     style="-webkit-tap-highlight-color: rgba(0, 0, 0, 0);"
     id="circle52" />
  <circle
     cx="87.5"
     cy="71.45"
     r="4.1499999999999995"
     fill="#ffffff"
     stroke="#ffffff"
     stroke-width="0"
     style="-webkit-tap-highlight-color: rgba(0, 0, 0, 0);"
     id="circle54" />
  <rect
     x="83.35"
     y="77.25999999999999"
     width="8.299999999999999"
     height="24.9"
     rx="3.32"
     ry="3.32"
     fill="#ffffff"
     stroke="#ffffff"
     stroke-width="0"
     style="-webkit-tap-highlight-color: rgba(0, 0, 0, 0);"
     id="rect56" />
  <path
     fill="#ffffff"
     stroke="#ffffff"
     d="M6,112H122A10,10,45,0,1,112,122H16A10,10,45,0,1,6,112Z"
     style="-webkit-tap-highlight-color: rgba(0, 0, 0, 0);"
     id="path58" />
</svg>
