<?xml version="1.0" encoding="UTF-8" standalone="no"?>
<svg
   xmlns:dc="http://purl.org/dc/elements/1.1/"
   xmlns:cc="http://creativecommons.org/ns#"
   xmlns:rdf="http://www.w3.org/1999/02/22-rdf-syntax-ns#"
   xmlns:svg="http://www.w3.org/2000/svg"
   xmlns="http://www.w3.org/2000/svg"
   xmlns:sodipodi="http://sodipodi.sourceforge.net/DTD/sodipodi-0.dtd"
   xmlns:inkscape="http://www.inkscape.org/namespaces/inkscape"
   height="128"
   version="1.1"
   width="128"
   style="overflow: hidden; position: relative;"
   id="svg30"
   sodipodi:docname="river_crossing_icon_enabled.svg"
   inkscape:version="0.92.3 (2405546, 2018-03-11)">
  <metadata
     id="metadata34">
    <rdf:RDF>
      <cc:Work
         rdf:about="">
        <dc:format>image/svg+xml</dc:format>
        <dc:type
           rdf:resource="http://purl.org/dc/dcmitype/StillImage" />
        <dc:title></dc:title>
      </cc:Work>
    </rdf:RDF>
  </metadata>
  <sodipodi:namedview
     pagecolor="#ffffff"
     bordercolor="#666666"
     borderopacity="1"
     objecttolerance="10"
     gridtolerance="10"
     guidetolerance="10"
     inkscape:pageopacity="0"
     inkscape:pageshadow="2"
     inkscape:window-width="1600"
     inkscape:window-height="837"
     id="namedview32"
     showgrid="false"
     inkscape:zoom="5.039"
     inkscape:cx="102.6"
     inkscape:cy="64"
     inkscape:window-x="-9"
     inkscape:window-y="-9"
     inkscape:window-maximized="1"
     inkscape:current-layer="svg30" />
  <desc
     style="-webkit-tap-highlight-color: rgba(0, 0, 0, 0);"
     id="desc10">Created with Raphaël 2.2.0</desc>
  <defs
     style="-webkit-tap-highlight-color: rgba(0, 0, 0, 0);"
     id="defs12" />
  <rect
     x="6"
     y="6"
     width="116"
     height="116"
     rx="10"
     ry="10"
     fill="#737370"
     stroke="#000"
     stroke-width="0"
     style="-webkit-tap-highlight-color: rgba(0, 0, 0, 0);"
     id="rect14" />
  <path
     fill="#82d1f5"
     stroke="#82d1f5"
     d="M25,38L41,32L41,22L43,22L51,32L57,42L47,52L43,42L31,42Z"
     stroke-width="5px"
     stroke-linejoin="round"
     style="-webkit-tap-highlight-color: rgba(0, 0, 0, 0); stroke-linejoin: round;"
     id="path16" />
  <path
     fill="#82d1f5"
     stroke="#82d1f5"
     d="M44.8,75.4C44.8,66.65,58.8,63.150000000000006,58.8,66.65C58.8,64.9,48.3,66.65,48.3,75.4L48.3,78.2L55.3,81.7L48.3,81.7L46.55,98.85H36.05L34.3,81.69999999999999L27.299999999999997,81.69999999999999L34.3,78.19999999999999L34.3,75.39999999999999C34.3,66.64999999999999,23.799999999999997,64.89999999999999,23.799999999999997,66.64999999999999C23.799999999999997,63.14999999999999,37.8,66.64999999999999,37.8,75.39999999999999Z"
     stroke-width="1.4px"
     stroke-linejoin="round"
     style="-webkit-tap-highlight-color: rgba(0, 0, 0, 0); stroke-linejoin: round;"
     id="path18" />
  <circle
     cx="88"
     cy="37"
     r="15"
     fill="#82d1f5"
     stroke="#82d1f5"
     stroke-width="0"
     style="-webkit-tap-highlight-color: rgba(0, 0, 0, 0);"
     id="circle20" />
  <circle
     cx="87.5"
     cy="68.45"
     r="4.1499999999999995"
     fill="#ffffff"
     stroke="#ffffff"
     style="-webkit-tap-highlight-color: rgba(0, 0, 0, 0);"
     stroke-width="0"
     id="circle22" />
  <rect
     x="83.35"
     y="74.25999999999999"
     width="8.299999999999999"
     height="24.9"
     rx="3.32"
     ry="3.32"
     fill="#ffffff"
     stroke="#ffffff"
     stroke-width="0"
     style="-webkit-tap-highlight-color: rgba(0, 0, 0, 0);"
     id="rect24" />
  <path
     fill="#ffffff"
     stroke="#000000"
     d="M6,109H122V112A10,10,45,0,1,112,122H16A10,10,45,0,1,6,112Z"
     stroke-width="0"
     style="-webkit-tap-highlight-color: rgba(0, 0, 0, 0);"
     id="path26" />
  <path
     d="M6,113 
     C15,110,26,110,35,113 
     C44,116,55,116,64,113 
     C73,110,84,110,93,113 
     C102,116,113,116,122,113 
     A10,10,45,0,1,112,123 
     H16 
     A10,10,45,0,1,6,113 
     Z
     "
     style="-webkit-tap-highlight-color: rgba(0, 0, 0, 0);"
     id="path28"
     stroke-width="0"
     stroke="#000000"
     fill="#82d1f5" />
</svg>
